<svg width="238" height="67" viewBox="0 0 238 67" fill="none" xmlns="http://www.w3.org/2000/svg">
<path d="M157.027 17.0059C156.194 17.0059 155.496 17.1882 154.944 17.5475C154.386 17.9121 153.949 18.3184 153.631 18.7767C153.308 19.2246 153.079 19.5788 152.944 19.8392C152.194 21.5475 151.61 23.4121 151.194 25.4225C150.787 27.4382 150.59 29.7507 150.59 32.36H147.548V4.13086H150.59V27.235C150.907 24.7663 151.444 22.5788 152.194 20.6725C152.944 18.7559 153.871 16.9798 154.985 15.3392C156.11 13.7038 157.371 12.0475 158.777 10.3809C158.777 10.3809 158.907 10.2142 159.173 9.88086C159.449 9.54753 159.761 9.13086 160.11 8.63086C160.454 8.12044 160.761 7.57878 161.027 7.00586C161.287 6.42253 161.428 5.87565 161.444 5.36003C161.454 4.83398 161.246 4.42253 160.819 4.13086H167.465C166.767 4.27148 166.069 4.54232 165.36 4.94336C164.652 5.33398 164.006 5.75586 163.423 6.21419C162.84 6.67253 162.366 7.06315 162.006 7.38086C161.642 7.70378 161.449 7.86003 161.423 7.86003C159.881 9.64128 158.465 11.334 157.173 12.9434C155.881 14.5423 154.756 16.2454 153.798 18.0475C154.131 17.7038 154.558 17.3913 155.09 17.11C155.631 16.834 156.277 16.6934 157.027 16.6934C158.444 16.6934 159.616 16.959 160.548 17.485C161.475 18.0007 162.256 18.6829 162.881 19.5267C163.506 20.3757 164.048 21.3184 164.506 22.36C164.975 23.4017 165.444 24.4434 165.902 25.485C166.428 26.6517 166.949 27.735 167.465 28.735C167.991 29.735 168.59 30.5423 169.256 31.1517C169.923 31.7507 170.72 32.0475 171.652 32.0475V32.36C169.579 32.36 167.933 32.084 166.715 31.5267C165.506 30.959 164.59 30.2246 163.965 29.3184C163.34 28.4173 162.892 27.4225 162.631 26.3392C162.381 25.2454 162.173 24.1465 162.006 23.0475C161.85 21.9538 161.636 20.9538 161.36 20.0475C161.079 19.1465 160.616 18.4173 159.965 17.86C159.308 17.2923 158.329 17.0059 157.027 17.0059Z" fill="#F1EFE7"/>
<path d="M190.126 32.36L185.605 21.5267C183.897 21.6829 182.486 22.0267 181.376 22.5684C180.277 23.0996 179.387 23.7454 178.71 24.5059C178.027 25.2715 177.48 26.0684 177.064 26.9017C176.658 27.7246 176.293 28.485 175.96 29.1934C175.595 30.1829 175.194 31.0007 174.751 31.6517C174.303 32.3079 173.631 32.6204 172.73 32.61C172.616 32.5788 172.512 32.5527 172.418 32.5267C172.335 32.4954 172.22 32.4277 172.085 32.3184C171.001 31.8496 170.564 30.6882 170.772 28.8392C170.881 27.9642 171.074 26.9798 171.355 25.8809C171.631 24.7715 172.012 23.5684 172.501 22.2767C173.21 20.36 174.048 18.334 175.022 16.1934C175.991 14.0423 177.022 11.9225 178.105 9.83919C179.189 7.74544 180.236 5.83919 181.251 4.13086H181.522L193.48 32.36H190.126ZM185.48 21.2559L179.605 7.56836C178.381 9.91732 177.147 12.3913 175.897 14.985C174.658 17.584 173.616 20.0423 172.772 22.36C172.283 23.6413 171.902 24.8288 171.626 25.9225C171.345 27.0215 171.152 27.9954 171.043 28.8392C171.027 29.6725 171.095 30.3757 171.251 30.9434C171.418 31.5163 171.736 31.8809 172.21 32.0475C172.345 32.0788 172.444 32.1048 172.501 32.1309C172.569 32.1465 172.658 32.1829 172.772 32.235C173.574 32.2923 174.173 32.0163 174.564 31.4017C174.965 30.7923 175.324 30.0371 175.647 29.1309C175.965 28.3809 176.34 27.5892 176.772 26.7559C177.199 25.9121 177.762 25.1048 178.46 24.3392C179.168 23.5632 180.074 22.8965 181.189 22.3392C182.314 21.7715 183.741 21.4121 185.48 21.2559Z" fill="#F1EFE7"/>
<path d="M203.823 16.7769C205.209 17.0998 206.328 17.7091 207.177 18.6102C208.037 19.5164 208.75 20.5841 209.323 21.8185C209.891 23.0425 210.448 24.2769 210.99 25.5269C211.49 26.6675 212 27.7352 212.532 28.7352C213.073 29.7352 213.677 30.5425 214.344 31.1519C215.011 31.7508 215.782 32.0477 216.657 32.0477V32.3602C214.584 32.3602 212.938 32.0841 211.719 31.5269C210.511 30.9591 209.599 30.2144 208.99 29.2977C208.375 28.381 207.933 27.381 207.657 26.2977C207.391 25.2039 207.183 24.105 207.032 23.006C206.891 21.9123 206.683 20.9019 206.407 19.9852C206.125 19.0685 205.662 18.3341 205.011 17.7769C204.354 17.2091 203.391 16.9227 202.115 16.9227C200.084 16.9227 198.459 15.9644 197.24 14.0477C196.542 12.9227 196.021 11.5477 195.677 9.92269V32.3602H192.511V4.08936H199.552C201.521 4.08936 203.313 4.30811 204.927 4.73519C206.537 5.16748 207.828 5.83936 208.802 6.75602C209.771 7.67269 210.261 8.89144 210.261 10.4019C210.261 11.7091 209.969 12.8133 209.386 13.7144C208.802 14.605 208.021 15.2977 207.052 15.7977C206.078 16.2873 205 16.6102 203.823 16.7769ZM207.115 10.4019C207.115 8.89144 206.75 7.69352 206.032 6.81852C205.308 5.93311 204.37 5.31331 203.219 4.96436C202.078 4.60498 200.854 4.42269 199.552 4.42269H195.677V6.90186C195.677 8.36019 195.844 9.66748 196.177 10.8185C196.511 11.9591 196.953 12.9748 197.511 13.8602C198.063 14.6831 198.74 15.355 199.532 15.881C200.334 16.3966 201.198 16.6519 202.115 16.6519H202.386C203.662 16.5685 204.766 16.0373 205.698 15.0477C206.641 14.0633 207.115 12.5164 207.115 10.4019Z" fill="#F1EFE7"/>
<path d="M225.212 32.3602V4.42269C223.796 4.42269 222.53 4.48519 221.421 4.61019C220.322 4.72477 219.306 4.97477 218.379 5.36019C217.462 5.75081 216.566 6.3706 215.691 7.21436V4.08936H237.796V7.21436C236.889 6.3706 235.983 5.75081 235.066 5.36019C234.15 4.97477 233.139 4.72477 232.046 4.61019C230.947 4.48519 229.697 4.42269 228.296 4.42269V32.3602H225.212Z" fill="#F1EFE7"/>
<path d="M20.2057 10.0039C18.1224 10.0039 16.3307 10.7747 14.8307 12.3164C13.3411 13.8581 12.6016 15.7122 12.6016 17.8789C12.6016 20.0768 13.3411 21.9414 14.8307 23.4831C16.3307 25.0247 18.1224 25.7956 20.2057 25.7956C21.2057 25.7956 22.1484 25.6706 23.0391 25.4206C23.9401 25.1706 24.6016 24.9206 25.0182 24.6706L25.5807 24.2956L29.3307 31.9831C29.0391 32.1914 28.6276 32.457 28.1016 32.7747C27.5859 33.082 26.3984 33.5039 24.5391 34.0456C22.6901 34.5872 20.7057 34.8581 18.5807 34.8581C13.8828 34.8581 9.7526 33.207 6.1849 29.8997C2.6276 26.582 0.851562 22.6185 0.851562 18.0039C0.851562 13.3372 2.6276 9.33203 6.1849 5.98307C9.7526 2.6237 13.8828 0.941406 18.5807 0.941406C20.7057 0.941406 22.6641 1.19141 24.4557 1.69141C26.2474 2.19141 27.5182 2.69141 28.2682 3.19141L29.3307 3.94141L25.5807 11.5039C24.2057 10.5039 22.4141 10.0039 20.2057 10.0039Z" fill="black"/>
<path d="M30.9701 30.1081C27.4128 26.9414 25.6367 22.8893 25.6367 17.9414C25.6367 12.9831 27.4909 8.91537 31.1992 5.73307C34.9076 2.54036 39.4805 0.941406 44.9284 0.941406C50.3034 0.941406 54.8294 2.54557 58.5117 5.75391C62.2044 8.96224 64.0534 13.0247 64.0534 17.9414C64.0534 22.8477 62.2461 26.8945 58.6367 30.0872C55.0378 33.2695 50.4701 34.8581 44.9284 34.8581C39.1888 34.8581 34.5378 33.2747 30.9701 30.1081ZM39.5326 12.5039C38.1003 13.9206 37.3867 15.7331 37.3867 17.9414C37.3867 20.1393 38.0638 21.9362 39.4284 23.3372C40.8034 24.7279 42.6159 25.4206 44.8659 25.4206C47.0326 25.4206 48.8086 24.7122 50.1992 23.2956C51.6003 21.8789 52.3034 20.0977 52.3034 17.9414C52.3034 15.7331 51.5794 13.9206 50.1367 12.5039C48.7044 11.0872 46.9492 10.3789 44.8659 10.3789C42.7409 10.3789 40.9596 11.0872 39.5326 12.5039Z" fill="black"/>
<path d="M73.7871 1.87891V17.1289C73.7871 20.2852 74.2559 22.5247 75.2038 23.8581C76.1621 25.1914 77.7871 25.8581 80.0788 25.8581C82.3704 25.8581 83.9954 25.1914 84.9538 23.8581C85.9121 22.5247 86.3913 20.2852 86.3913 17.1289V1.87891H97.4538V19.7956C97.4538 25.1289 96.0632 28.9779 93.2871 31.3372C90.5215 33.6862 86.1204 34.8581 80.0788 34.8581C74.0475 34.8581 69.6465 33.6862 66.8704 31.3372C64.1048 28.9779 62.7246 25.1289 62.7246 19.7956V1.87891H73.7871Z" fill="black"/>
<path d="M131.417 5.85807C134.417 9.1237 135.917 13.1289 135.917 17.8789C135.917 22.6185 134.417 26.6289 131.417 29.9206C128.417 33.2122 124.604 34.8581 119.979 34.8581C115.729 34.8581 112.234 33.5247 109.5 30.8581V50.1497H98.4375V1.87891H109.375V5.50391H109.5C112.234 2.46224 115.729 0.941406 119.979 0.941406C124.604 0.941406 128.417 2.58203 131.417 5.85807ZM122 23.2956C123.443 21.8789 124.167 20.0768 124.167 17.8789C124.167 15.6706 123.479 13.8737 122.104 12.4831C120.729 11.082 118.917 10.3789 116.667 10.3789C114.5 10.3789 112.719 11.0872 111.333 12.5039C109.943 13.9206 109.25 15.7122 109.25 17.8789C109.25 20.0768 109.964 21.8789 111.396 23.2956C112.823 24.7122 114.583 25.4206 116.667 25.4206C118.792 25.4206 120.568 24.7122 122 23.2956Z" fill="black"/>
<mask id="mask0_2009_42" style="mask-type:luminance" maskUnits="userSpaceOnUse" x="182" y="27" width="48" height="40">
<path d="M182 27H230V67H182V27Z" fill="white"/>
</mask>
<g mask="url(#mask0_2009_42)">
<mask id="mask1_2009_42" style="mask-type:luminance" maskUnits="userSpaceOnUse" x="178" y="17" width="54" height="58">
<path d="M191.766 17L231.042 28.7604L217.276 74.7448L178 62.9844L191.766 17Z" fill="white"/>
</mask>
<g mask="url(#mask1_2009_42)">
<mask id="mask2_2009_42" style="mask-type:luminance" maskUnits="userSpaceOnUse" x="178" y="17" width="54" height="58">
<path d="M191.766 17L231.042 28.7604L217.276 74.7448L178 62.9844L191.766 17Z" fill="white"/>
</mask>
<g mask="url(#mask2_2009_42)">
<mask id="mask3_2009_42" style="mask-type:luminance" maskUnits="userSpaceOnUse" x="178" y="17" width="54" height="58">
<path d="M191.766 17L231.042 28.7604L217.276 74.7448L178 62.9844L191.766 17Z" fill="white"/>
</mask>
<g mask="url(#mask3_2009_42)">
<path d="M194.964 50.1561C194.964 50.3592 194.808 50.5467 194.505 50.6926L194.162 50.8853L193.271 49.2082L193.62 49.0207C193.745 48.9426 193.88 48.8905 194.031 48.8697C194.167 48.8592 194.292 48.9009 194.401 48.979C194.568 49.104 194.693 49.2551 194.776 49.4426C194.912 49.6613 194.974 49.9009 194.964 50.1561ZM203.193 52.6197C203.058 52.4842 202.906 52.4634 202.74 52.5572C202.573 52.6457 202.505 52.7863 202.542 52.9738C202.62 53.3436 202.761 53.6874 202.959 54.0051C203.11 54.3436 203.318 54.6509 203.573 54.9165C203.703 55.0572 203.86 55.0832 204.031 54.9947C204.203 54.9009 204.271 54.7603 204.235 54.5728C204.151 54.2134 204.011 53.8749 203.818 53.5624C203.662 53.2186 203.448 52.9113 203.188 52.6405L203.193 52.6197ZM194.516 58.5832C194.396 58.3332 194.24 58.1145 194.047 57.9217C193.938 57.8072 193.802 57.7342 193.646 57.7082C193.495 57.703 193.354 57.7447 193.224 57.8228L193.104 57.8905L194.38 60.2967L194.511 60.229C194.651 60.1613 194.761 60.0572 194.839 59.9113C194.896 59.7499 194.906 59.5884 194.86 59.4217C194.787 59.1249 194.672 58.8436 194.516 58.5832ZM207.474 41.8176L208.209 44.3957L209.214 43.8436L207.474 41.8176ZM229.188 33.3957C228.115 35.7082 224.953 37.828 222.297 39.2811C221.865 39.5259 221.448 39.7395 221.058 39.9374C221.292 40.6092 221.313 41.2915 221.11 41.979L218.688 51.2342C218.391 52.2238 217.917 53.1145 217.271 53.9217C216.625 54.7238 215.854 55.3749 214.959 55.8697L195.417 66.5572C195.021 66.7707 194.599 66.9009 194.156 66.9478C193.709 66.9947 193.271 66.953 192.844 66.828C192.417 66.6978 192.026 66.4895 191.683 66.2082C191.339 65.9217 191.058 65.5832 190.844 65.1874L183.078 50.5572C182.87 50.1613 182.74 49.7395 182.698 49.2863C182.656 48.8384 182.698 48.3957 182.828 47.9634C182.959 47.5311 183.167 47.1353 183.448 46.7863C183.729 46.4322 184.068 46.1457 184.464 45.9322L203.964 35.2655C204.88 34.7655 205.86 34.4634 206.896 34.3645C207.938 34.2655 208.948 34.3697 209.943 34.6874L218.735 37.8488C219.391 36.7499 220.24 35.8384 221.281 35.1092C222.125 34.5103 222.828 33.7811 223.391 32.9165C223.959 32.052 224.349 31.1092 224.563 30.0936C224.651 29.6613 224.834 29.2759 225.12 28.9426C225.406 28.604 225.755 28.3592 226.167 28.2082C226.558 28.0572 226.959 28.0103 227.37 28.0676C227.787 28.1249 228.156 28.2759 228.495 28.5259C229.297 29.1509 230.459 30.6197 229.188 33.3957ZM218.354 40.6405C218.474 40.7447 218.688 40.5051 218.719 40.4842L218.474 40.2238C218.464 40.2603 218.235 40.5415 218.354 40.6405ZM206.375 40.8697L207.834 47.3853L208.87 46.802L208.505 45.4842L209.938 44.6978L210.828 45.729L211.979 45.0988L207.526 40.2551L206.375 40.8697ZM203.396 42.5051L206.38 48.1249L207.495 47.5051L204.516 41.8853L203.396 42.5051ZM199.891 45.3072C199.875 46.177 200.094 46.979 200.542 47.7186C200.906 48.4895 201.448 49.104 202.162 49.5572C202.448 49.7238 202.755 49.8072 203.089 49.8072C203.417 49.802 203.729 49.7186 204.011 49.5467C204.511 49.2863 204.823 48.8801 204.938 48.328C205.042 47.6978 204.953 47.104 204.672 46.5363L203.599 47.0415C203.922 47.8228 203.886 48.328 203.479 48.5624C203.203 48.7238 202.943 48.6978 202.703 48.4895C202.302 48.1092 201.99 47.6717 201.766 47.1665C201.443 46.6509 201.24 46.0884 201.146 45.4842C201.104 45.1665 201.214 44.9322 201.485 44.7655C201.933 44.5207 202.391 44.8124 202.865 45.6405L203.844 44.9947C202.969 43.5832 201.995 43.1665 200.927 43.7499C200.287 44.0676 199.938 44.5884 199.891 45.3072ZM195.573 46.7915L198.558 52.4113L201.667 50.7238L201.136 49.7186L199.151 50.802L198.396 49.4113L199.974 48.5832L199.464 47.6197L197.927 48.4634L197.203 47.1457L199.183 46.0572L198.667 45.0988L195.573 46.7915ZM191.656 48.927L194.641 54.5467L195.761 53.9322L194.651 51.8436L195.047 51.6301C195.438 51.4478 195.771 51.1874 196.052 50.8488C196.24 50.5832 196.328 50.2915 196.313 49.9634C196.292 49.5624 196.183 49.1822 195.99 48.8332C195.792 48.4478 195.516 48.1405 195.156 47.9113C194.88 47.7134 194.578 47.6405 194.245 47.6926C193.854 47.7759 193.49 47.927 193.146 48.1301L191.656 48.927ZM192.203 56.0259C192.453 55.9061 192.667 55.7447 192.849 55.5311C193.031 55.3228 193.162 55.0832 193.245 54.8176C193.323 54.5467 193.344 54.2759 193.313 53.9999C193.276 53.7238 193.183 53.4686 193.037 53.229C192.896 52.9478 192.698 52.7186 192.448 52.5311C192.224 52.3749 191.979 52.2759 191.709 52.2447C191.375 52.2134 191.042 52.2238 190.714 52.2707C190.406 52.3124 190.104 52.3176 189.802 52.2811C189.63 52.2499 189.505 52.1561 189.427 51.9947C189.349 51.854 189.339 51.7082 189.386 51.5572C189.433 51.3853 189.531 51.2655 189.688 51.1874C190.042 50.9947 190.386 51.0884 190.776 51.5155L191.495 50.6145C191.36 50.4374 191.198 50.2915 191.011 50.177C190.823 50.0624 190.62 49.9842 190.401 49.9478C190.183 49.9113 189.964 49.9113 189.75 49.9582C189.531 50.0051 189.328 50.0884 189.141 50.2082C188.667 50.4426 188.365 50.8176 188.224 51.3332C188.099 51.8592 188.172 52.354 188.448 52.8228C188.594 53.104 188.792 53.3332 189.052 53.5155C189.281 53.677 189.537 53.7655 189.818 53.7915C190.183 53.8072 190.547 53.7915 190.912 53.7342C191.172 53.6822 191.427 53.6926 191.677 53.7603C191.823 53.8228 191.933 53.9217 192 54.0624C192.099 54.229 192.12 54.4113 192.058 54.5988C191.985 54.7915 191.854 54.9374 191.672 55.0311C191.245 55.2603 190.823 55.1249 190.396 54.6457L189.584 55.4895C190.406 56.3592 191.281 56.5363 192.203 56.0259ZM195.656 59.8957C195.698 59.6405 195.693 59.3853 195.636 59.1353C195.568 58.8072 195.453 58.4947 195.297 58.203C195.11 57.8176 194.854 57.4842 194.526 57.2134C194.292 57.0311 194.026 56.9374 193.724 56.9426C193.406 56.9738 193.104 57.0728 192.823 57.2395L192.026 57.677L193.948 61.2967L194.834 60.8332C195.037 60.7238 195.219 60.5936 195.38 60.4322C195.526 60.2811 195.62 60.104 195.656 59.8957ZM197.459 59.3801L195.537 55.7551L194.818 56.1509L196.74 59.7759L197.459 59.3801ZM199.688 57.8124C199.787 57.4582 199.745 57.1197 199.563 56.802C199.469 56.6249 199.344 56.479 199.183 56.3592C199.037 56.2551 198.88 56.1926 198.703 56.177C198.49 56.1561 198.276 56.1561 198.068 56.1874C197.87 56.2186 197.677 56.2186 197.485 56.1978C197.37 56.177 197.292 56.1145 197.245 56.0103C197.193 55.9165 197.183 55.8176 197.214 55.7186C197.245 55.6145 197.308 55.5363 197.401 55.4895C197.625 55.3645 197.854 55.4374 198.099 55.6978L198.558 55.1197C198.38 54.8853 198.141 54.7395 197.854 54.6926C197.563 54.6405 197.292 54.6978 197.042 54.8592C196.74 55.0155 196.547 55.2551 196.459 55.5832C196.375 55.927 196.422 56.2447 196.599 56.5467C196.693 56.7238 196.823 56.8697 196.985 56.9842C197.141 57.078 197.308 57.1301 197.49 57.1353C197.714 57.1405 197.943 57.1249 198.167 57.0884C198.334 57.0572 198.495 57.0624 198.656 57.1092C198.75 57.1457 198.818 57.2082 198.865 57.2967C198.933 57.4061 198.943 57.5259 198.901 57.6457C198.854 57.7707 198.776 57.8592 198.656 57.9165C198.38 58.0728 198.11 57.9842 197.834 57.6717L197.318 58.1926C197.646 58.6197 198.073 58.7863 198.604 58.6926C199.136 58.5988 199.485 58.2967 199.656 57.7759L199.688 57.8124ZM202.323 56.3228C202.391 55.9217 202.334 55.5363 202.156 55.177L201.464 55.4947C201.672 56.0051 201.651 56.328 201.386 56.4738C201.209 56.578 201.042 56.5624 200.886 56.427C200.625 56.1822 200.422 55.8957 200.276 55.5676C200.068 55.2342 199.933 54.8697 199.875 54.479C199.849 54.2811 199.922 54.1301 200.099 54.0259C200.38 53.8697 200.677 54.0572 200.979 54.5832L201.641 54.1561C201.084 53.2551 200.464 52.9895 199.776 53.3697C199.354 53.5728 199.136 53.9113 199.104 54.3801C199.099 54.9374 199.24 55.4478 199.526 55.9217C199.745 56.4322 200.089 56.8384 200.547 57.1405C200.943 57.3749 201.339 57.3697 201.735 57.1301C202.063 56.9582 202.261 56.6874 202.323 56.3228ZM204.552 53.1665C204.318 52.6509 203.974 52.2447 203.505 51.9374C203.125 51.7186 202.745 51.7238 202.365 51.953C201.589 52.3905 201.537 53.2238 202.219 54.453C202.443 54.9634 202.792 55.3749 203.255 55.6822C203.636 55.9061 204.016 55.9061 204.401 55.6717C205.162 55.2342 205.229 54.3905 204.568 53.1457L204.552 53.1665ZM207.771 53.5415C207.86 53.3228 207.87 53.104 207.808 52.8801C207.703 52.5467 207.563 52.2342 207.391 51.9322L206.308 49.8905L205.703 50.2238L206.823 52.2655C206.943 52.4634 207.042 52.6665 207.12 52.8801C207.167 52.9895 207.167 53.104 207.13 53.2134C207.089 53.3332 207.011 53.4165 206.896 53.4686C206.797 53.5259 206.688 53.552 206.573 53.5363C206.453 53.5103 206.354 53.4478 206.281 53.354C206.141 53.1665 206.026 52.9686 205.922 52.7603L204.823 50.6874L204.099 51.0884L205.209 53.1353C205.37 53.4842 205.584 53.802 205.849 54.0832C206.016 54.2342 206.214 54.3228 206.438 54.3384C206.703 54.3332 206.948 54.2603 207.172 54.1197C207.448 53.9947 207.651 53.7915 207.792 53.5207L207.771 53.5415ZM211.031 51.9582L209.11 48.3332L208.552 48.6405L209.745 50.8853L207.709 49.0988L206.912 49.5363L208.839 53.1613L209.386 52.8592L208.021 50.2134L210.412 52.2811L211.031 51.9582ZM212.625 51.0884L211.084 48.1405L211.75 47.7707L211.391 47.0884L209.349 48.2082L209.709 48.8905L210.36 48.5311L211.922 51.479L212.625 51.0884ZM215.125 43.3749L214.594 42.2915L212.927 43.1822L210.495 38.604L209.375 39.2134L212.354 44.8332L215.125 43.3749ZM218.781 40.9895C218.563 41.078 218.271 41.2863 218.068 41.1405C217.865 40.9947 217.781 40.7915 217.818 40.5415C217.834 40.479 217.886 40.1717 217.901 40.0936C217.813 40.0988 217.729 40.1249 217.651 40.1665C217.469 40.2707 217.344 40.427 217.281 40.6301C217.219 40.8332 217.24 41.0311 217.339 41.2186C217.438 41.4113 217.589 41.5311 217.792 41.5936C217.995 41.6561 218.193 41.6353 218.38 41.5311C218.594 41.4113 218.729 41.2342 218.781 40.9895ZM228.104 29.0363C227.578 28.6509 227.005 28.578 226.396 28.8072C225.735 29.0572 225.328 29.5311 225.183 30.229C224.948 31.3176 224.526 32.328 223.917 33.2603C223.308 34.1926 222.552 34.9842 221.651 35.6301C220.714 36.2863 219.943 37.104 219.339 38.0832C219.933 38.3592 220.401 38.7811 220.74 39.3436C223.49 37.9738 227.406 35.6405 228.599 33.1301C229.422 31.3488 229.245 29.9426 228.104 29.0363Z" fill="black"/>
</g>
</g>
</g>
</g>
<path d="M157.027 17.0059C156.194 17.0059 155.496 17.1882 154.944 17.5475C154.386 17.9121 153.949 18.3184 153.631 18.7767C153.308 19.2246 153.079 19.5788 152.944 19.8392C152.194 21.5475 151.61 23.4121 151.194 25.4225C150.787 27.4382 150.59 29.7507 150.59 32.36H147.548V4.13086H150.59V27.235C150.907 24.7663 151.444 22.5788 152.194 20.6725C152.944 18.7559 153.871 16.9798 154.985 15.3392C156.11 13.7038 157.371 12.0475 158.777 10.3809C158.777 10.3809 158.907 10.2142 159.173 9.88086C159.449 9.54753 159.761 9.13086 160.11 8.63086C160.454 8.12044 160.761 7.57878 161.027 7.00586C161.287 6.42253 161.428 5.87565 161.444 5.36003C161.454 4.83398 161.246 4.42253 160.819 4.13086H167.465C166.767 4.27148 166.069 4.54232 165.36 4.94336C164.652 5.33398 164.006 5.75586 163.423 6.21419C162.84 6.67253 162.366 7.06315 162.006 7.38086C161.642 7.70378 161.449 7.86003 161.423 7.86003C159.881 9.64128 158.465 11.334 157.173 12.9434C155.881 14.5423 154.756 16.2454 153.798 18.0475C154.131 17.7038 154.558 17.3913 155.09 17.11C155.631 16.834 156.277 16.6934 157.027 16.6934C158.444 16.6934 159.616 16.959 160.548 17.485C161.475 18.0007 162.256 18.6829 162.881 19.5267C163.506 20.3757 164.048 21.3184 164.506 22.36C164.975 23.4017 165.444 24.4434 165.902 25.485C166.428 26.6517 166.949 27.735 167.465 28.735C167.991 29.735 168.59 30.5423 169.256 31.1517C169.923 31.7507 170.72 32.0475 171.652 32.0475V32.36C169.579 32.36 167.933 32.084 166.715 31.5267C165.506 30.959 164.59 30.2246 163.965 29.3184C163.34 28.4173 162.892 27.4225 162.631 26.3392C162.381 25.2454 162.173 24.1465 162.006 23.0475C161.85 21.9538 161.636 20.9538 161.36 20.0475C161.079 19.1465 160.616 18.4173 159.965 17.86C159.308 17.2923 158.329 17.0059 157.027 17.0059Z" fill="#F1EFE7"/>
<path d="M190.126 32.36L185.605 21.5267C183.897 21.6829 182.486 22.0267 181.376 22.5684C180.277 23.0996 179.387 23.7454 178.71 24.5059C178.027 25.2715 177.48 26.0684 177.064 26.9017C176.658 27.7246 176.293 28.485 175.96 29.1934C175.595 30.1829 175.194 31.0007 174.751 31.6517C174.303 32.3079 173.631 32.6204 172.73 32.61C172.616 32.5788 172.512 32.5527 172.418 32.5267C172.335 32.4954 172.22 32.4277 172.085 32.3184C171.001 31.8496 170.564 30.6882 170.772 28.8392C170.881 27.9642 171.074 26.9798 171.355 25.8809C171.631 24.7715 172.012 23.5684 172.501 22.2767C173.21 20.36 174.048 18.334 175.022 16.1934C175.991 14.0423 177.022 11.9225 178.105 9.83919C179.189 7.74544 180.236 5.83919 181.251 4.13086H181.522L193.48 32.36H190.126ZM185.48 21.2559L179.605 7.56836C178.381 9.91732 177.147 12.3913 175.897 14.985C174.658 17.584 173.616 20.0423 172.772 22.36C172.283 23.6413 171.902 24.8288 171.626 25.9225C171.345 27.0215 171.152 27.9954 171.043 28.8392C171.027 29.6725 171.095 30.3757 171.251 30.9434C171.418 31.5163 171.736 31.8809 172.21 32.0475C172.345 32.0788 172.444 32.1048 172.501 32.1309C172.569 32.1465 172.658 32.1829 172.772 32.235C173.574 32.2923 174.173 32.0163 174.564 31.4017C174.965 30.7923 175.324 30.0371 175.647 29.1309C175.965 28.3809 176.34 27.5892 176.772 26.7559C177.199 25.9121 177.762 25.1048 178.46 24.3392C179.168 23.5632 180.074 22.8965 181.189 22.3392C182.314 21.7715 183.741 21.4121 185.48 21.2559Z" fill="#F1EFE7"/>
<path d="M203.823 16.7769C205.209 17.0998 206.328 17.7091 207.177 18.6102C208.037 19.5164 208.75 20.5841 209.323 21.8185C209.891 23.0425 210.448 24.2769 210.99 25.5269C211.49 26.6675 212 27.7352 212.532 28.7352C213.073 29.7352 213.677 30.5425 214.344 31.1519C215.011 31.7508 215.782 32.0477 216.657 32.0477V32.3602C214.584 32.3602 212.938 32.0841 211.719 31.5269C210.511 30.9591 209.599 30.2144 208.99 29.2977C208.375 28.381 207.933 27.381 207.657 26.2977C207.391 25.2039 207.183 24.105 207.032 23.006C206.891 21.9123 206.683 20.9019 206.407 19.9852C206.125 19.0685 205.662 18.3341 205.011 17.7769C204.354 17.2091 203.391 16.9227 202.115 16.9227C200.084 16.9227 198.459 15.9644 197.24 14.0477C196.542 12.9227 196.021 11.5477 195.677 9.92269V32.3602H192.511V4.08936H199.552C201.521 4.08936 203.313 4.30811 204.927 4.73519C206.537 5.16748 207.828 5.83936 208.802 6.75602C209.771 7.67269 210.261 8.89144 210.261 10.4019C210.261 11.7091 209.969 12.8133 209.386 13.7144C208.802 14.605 208.021 15.2977 207.052 15.7977C206.078 16.2873 205 16.6102 203.823 16.7769ZM207.115 10.4019C207.115 8.89144 206.75 7.69352 206.032 6.81852C205.308 5.93311 204.37 5.31331 203.219 4.96436C202.078 4.60498 200.854 4.42269 199.552 4.42269H195.677V6.90186C195.677 8.36019 195.844 9.66748 196.177 10.8185C196.511 11.9591 196.953 12.9748 197.511 13.8602C198.063 14.6831 198.74 15.355 199.532 15.881C200.334 16.3966 201.198 16.6519 202.115 16.6519H202.386C203.662 16.5685 204.766 16.0373 205.698 15.0477C206.641 14.0633 207.115 12.5164 207.115 10.4019Z" fill="#F1EFE7"/>
<path d="M225.212 32.3602V4.42269C223.796 4.42269 222.53 4.48519 221.421 4.61019C220.322 4.72477 219.306 4.97477 218.379 5.36019C217.462 5.75081 216.566 6.3706 215.691 7.21436V4.08936H237.796V7.21436C236.889 6.3706 235.983 5.75081 235.066 5.36019C234.15 4.97477 233.139 4.72477 232.046 4.61019C230.947 4.48519 229.697 4.42269 228.296 4.42269V32.3602H225.212Z" fill="#F1EFE7"/>
</svg>
